HIERARCHY
ROOT hip
{
	OFFSET 0.000000 0.000000 0.000000 
	CHANNELS 6 Xposition Yposition Zposition Xrotation Zrotation Yrotation
	JOINT abdomen
	{
		OFFSET 0.000000 3.402643 0.000000 
		CHANNELS 3 Xrotation Zrotation Yrotation
		JOINT chest
		{
			OFFSET 0.000000 8.438565 -0.680529 
			CHANNELS 3 Xrotation Zrotation Yrotation
			JOINT neck
			{
				OFFSET 0.000000 10.207942 -0.272212 
				CHANNELS 3 Xrotation Zrotation Yrotation
				JOINT head
				{
					OFFSET 0.000000 3.130431 0.000000 
					CHANNELS 3 Xrotation Zrotation Yrotation
					End Site
					{
						OFFSET 0.000000 3.130435 0.000000 
					}
				}
			}
			JOINT lCollar
			{
				OFFSET 3.470700 6.669187 -0.816635 
				CHANNELS 3 Yrotation Zrotation Xrotation
				JOINT lShldr
				{
					OFFSET 3.198488 0.000000 0.000000 
					CHANNELS 3 Zrotation Yrotation Xrotation
					JOINT lForeArm
					{
						OFFSET 10.139888 0.000000 0.000000 
						CHANNELS 3 Yrotation Zrotation Xrotation
						JOINT lHand
						{
							OFFSET 8.370511 0.000000 0.000000 
							CHANNELS 3 Zrotation Yrotation Xrotation
							End Site
							{
								OFFSET 4.083176 0.000000 0.000000 
							}
						}
					}
				}
			}
			JOINT rCollar
			{
				OFFSET -3.470700 6.669187 -0.816635 
				CHANNELS 3 Yrotation Zrotation Xrotation
				JOINT rShldr
				{
					OFFSET -3.198488 0.000000 0.000000 
					CHANNELS 3 Zrotation Yrotation Xrotation
					JOINT rForeArm
					{
						OFFSET -10.139888 0.000000 0.000000 
						CHANNELS 3 Yrotation Zrotation Xrotation
						JOINT rHand
						{
							OFFSET -8.370511 0.000000 0.000000 
							CHANNELS 3 Zrotation Yrotation Xrotation
							End Site
							{
								OFFSET -4.083176 0.000000 0.000000 
							}
						}
					}
				}
			}
		}
	}
	JOINT lThigh
	{
		OFFSET 5.308129 -1.633274 1.361059 
		CHANNELS 3 Xrotation Zrotation Yrotation
		JOINT lShin
		{
			OFFSET -2.041588 -20.007561 0.000000 
			CHANNELS 3 Xrotation Zrotation Yrotation
			JOINT lFoot
			{
				OFFSET 0.000000 -19.190928 -1.224953 
				CHANNELS 3 Xrotation Yrotation Zrotation
				End Site
				{
					OFFSET 0.000000 -2.449906 4.627600 
				}
			}
		}
	}
	JOINT rThigh
	{
		OFFSET -5.308129 -1.633274 1.361059 
		CHANNELS 3 Xrotation Zrotation Yrotation
		JOINT rShin
		{
			OFFSET 2.041588 -20.007561 0.000000 
			CHANNELS 3 Xrotation Zrotation Yrotation
			JOINT rFoot
			{
				OFFSET 0.000000 -19.190928 -1.224953 
				CHANNELS 3 Xrotation Yrotation Zrotation
				End Site
				{
					OFFSET 0.000000 -2.449906 4.627600 
				}
			}
		}
	}
}
MOTION
Frames: 6
Frame Time: 0.016667
-1.456671 54.211205 -5.354116 -8.796937 3.573185 -1.379145 28.380056 6.835590 2.693717 4.660189 0.556586 -1.044884 5.158526 1.034873 0.050989 17.433605 -10.850113 19.511496 -17.773809 -8.262923 -0.427511 -74.449921 12.495893 -32.932812 -29.519880 -5.000000 14.605124 -19.159525 8.535284 11.097178 17.828955 6.094898 -0.323590 69.128204 -5.330316 -17.516960 31.094570 5.000000 7.145717 4.887156 -28.335058 10.853319 -18.983950 10.917636 8.244179 8.597677 -5.027037 -0.964573 29.098385 -1.770950 -9.403399 15.993768 -2.938179 1.141255 -2.563394 3.599375 -0.057311 -3.257195 -13.639180 -1.432691 
-1.511626 54.173512 -5.365284 -8.832991 3.123624 -1.701483 28.350048 7.403934 3.136280 4.678832 0.605407 -1.044876 5.246409 1.025217 0.052449 17.403358 -10.829166 19.689266 -17.763241 -8.155648 -0.420583 -74.633453 12.408957 -32.810230 -29.955666 -5.000000 14.255322 -18.887058 8.201481 10.469768 17.857428 5.948607 -0.316022 69.221672 -5.285295 -17.437365 30.706690 5.000000 7.274256 4.793606 -28.478130 11.135713 -18.406904 11.551691 10.473015 6.058756 -4.852382 -0.711451 26.213457 1.462249 -7.435640 16.018785 -2.527352 1.394811 -2.683084 3.681224 -0.078624 -3.069278 -13.469256 -1.497409 
-1.575979 54.134518 -5.383740 -8.897574 2.674303 -1.906323 28.357204 7.907937 3.499048 4.686663 0.683512 -1.132866 5.314794 1.054184 0.048070 17.365669 -10.781244 19.855640 -17.812071 -7.977118 -0.420748 -74.863083 12.302509 -32.662762 -30.326975 -5.000000 13.900540 -18.717958 7.976333 10.139266 17.845654 5.756551 -0.296681 69.404594 -5.197788 -17.329296 30.361427 5.000000 7.249332 4.634224 -28.623442 11.514289 -18.096117 12.188075 12.813723 4.633399 -4.769579 -0.575574 22.067099 4.323002 -4.911604 16.079300 -2.088708 1.448318 -2.739533 3.735845 -0.104548 -2.849732 -13.176856 -1.495814 
-1.649733 54.094212 -5.409484 -9.004286 2.244722 -2.003476 28.420214 8.352255 3.798486 4.683480 0.800663 -1.289103 5.364060 1.134351 0.055701 17.292566 -10.724133 20.022017 -17.927393 -7.723539 -0.407677 -75.136131 12.162886 -32.476280 -30.628157 -5.000000 13.515518 -18.667528 7.891279 10.110910 17.785862 5.522492 -0.284562 69.678345 -5.072041 -17.201311 30.053984 5.000000 7.052617 4.413558 -28.769190 11.985367 -18.046230 12.860590 15.272173 4.300955 -4.773643 -0.529728 16.656944 6.545616 -1.860515 16.189144 -1.590893 1.269736 -2.747795 3.743244 -0.076243 -2.609215 -12.807507 -1.421760 
-1.723487 54.053902 -5.435225 -9.109179 1.805428 -2.100413 28.486353 8.787776 4.093444 4.679898 0.917805 -1.445330 5.403385 1.203401 0.055137 17.223202 -10.657862 20.186592 -18.042706 -7.460205 -0.394096 -75.410812 12.025416 -32.291279 -30.935286 -5.000000 13.148967 -18.609835 7.798337 10.065378 17.735882 5.288432 -0.272437 69.952614 -4.947671 -17.072523 29.743837 5.000000 6.863250 4.195745 -28.912649 12.443209 -17.976990 13.533057 17.739622 3.965366 -4.779708 -0.532664 11.105213 8.446816 1.414616 16.275667 -1.092629 1.080771 -2.749833 3.766849 -0.057711 -2.335072 -12.427245 -1.329407 
-1.808515 54.014847 -5.432799 -9.338841 1.444387 -2.051360 28.529997 9.072065 4.292295 4.753446 1.005620 -1.689603 5.443493 1.373390 0.068933 17.221409 -10.463421 20.202812 -18.206715 -7.167605 -0.378994 -75.568542 11.831079 -32.001503 -31.074137 -5.000000 12.839194 -18.751808 7.869839 10.401830 17.637398 5.112886 -0.263341 70.279251 -4.917771 -17.252220 29.574976 5.000000 6.908382 4.001337 -28.995602 12.478843 -18.256439 14.445077 18.399557 5.112575 -4.667007 -0.620702 6.861127 9.370794 2.727292 16.521744 -0.614865 1.196545 -2.742425 3.759269 -0.076245 -2.544204 -12.438325 -1.515074 
